<svg xmlns="http://www.w3.org/2000/svg" width="18" height="23" viewBox="0 0 18 23" fill="none">
    <path d="M2.81018 22.6031C2.25663 22.6031 1.78383 22.407 1.39179 22.015C0.999739 21.623 0.803711 21.1502 0.803711 20.5966V10.1801C0.803711 9.62658 0.999739 9.15378 1.39179 8.76175C1.78383 8.36969 2.25663 8.17366 2.81018 8.17366H4.13359V5.95374C4.13359 4.56774 4.61955 3.38878 5.59146 2.41686C6.5634 1.44494 7.74237 0.958984 9.12838 0.958984C10.5144 0.958984 11.6934 1.44494 12.6653 2.41686C13.6372 3.38878 14.1232 4.56774 14.1232 5.95374V8.17366H15.4466C16.0001 8.17366 16.4729 8.36969 16.865 8.76175C17.257 9.15378 17.453 9.62658 17.453 10.1801V20.5966C17.453 21.1502 17.257 21.623 16.865 22.015C16.4729 22.407 16.0001 22.6031 15.4466 22.6031H2.81018ZM2.81018 20.9382H15.4466C15.5462 20.9382 15.628 20.9061 15.6921 20.8421C15.7561 20.7781 15.7881 20.6962 15.7881 20.5966V10.1801C15.7881 10.0805 15.7561 9.99868 15.6921 9.93464C15.628 9.87059 15.5462 9.83857 15.4466 9.83857H2.81018C2.71057 9.83857 2.62873 9.87059 2.56469 9.93464C2.50064 9.99868 2.46862 10.0805 2.46862 10.1801V20.5966C2.46862 20.6962 2.50064 20.7781 2.56469 20.8421C2.62873 20.9061 2.71057 20.9382 2.81018 20.9382ZM9.12838 17.3308C9.66771 17.3308 10.1263 17.1419 10.5041 16.7641C10.8819 16.3863 11.0708 15.9277 11.0708 15.3884C11.0708 14.849 10.8819 14.3905 10.5041 14.0127C10.1263 13.6349 9.66771 13.446 9.12838 13.446C8.58905 13.446 8.13049 13.6349 7.75269 14.0127C7.37488 14.3905 7.18598 14.849 7.18598 15.3884C7.18598 15.9277 7.37488 16.3863 7.75269 16.7641C8.13049 17.1419 8.58905 17.3308 9.12838 17.3308ZM5.7985 8.17366H12.4583V5.95374C12.4583 5.02878 12.1345 4.24256 11.487 3.59508C10.8396 2.94761 10.0533 2.62387 9.12838 2.62387C8.20341 2.62387 7.41719 2.94761 6.76971 3.59508C6.12224 4.24256 5.7985 5.02878 5.7985 5.95374V8.17366Z"
          fill="#FF5C53"/>
</svg>