<svg xmlns="http://www.w3.org/2000/svg" width="284" height="188" viewBox="0 0 284 188" fill="none">
    <path d="M91.1071 185.381L91.0993 185.378L91.0858 185.373L91.0735 185.359L0.5 82.9819V67.0061L64.0183 3.77734H87.2154L91.8061 12.7793L91.9453 13.0522H92.2516H191.773H192.078L192.218 12.7798L196.82 3.77734H219.74L219.774 3.81145L219.775 3.81295L283.5 67.2962V82.5766L283.476 82.6021L283.469 82.6103L192.553 185.373L192.54 185.378L192.53 185.381C190.576 186.14 188.78 186.79 187.033 187.367C187.032 187.367 187.031 187.367 187.03 187.368L186.946 187.395L178.257 170.384L178.117 170.111H177.811H105.815H105.509L105.37 170.384L96.681 187.395L96.5987 187.368C96.5975 187.368 96.5963 187.368 96.5951 187.367C94.8356 186.778 93.0505 186.128 91.1071 185.381Z"
          fill="#31181E" stroke="#FF5C53"/>
    <path d="M129.157 186.484L129.011 186.63V186.837V186.953H104.125L104.159 179.352L107.202 173.406H175.997L178.982 179.337V186.953H152.045L148.918 183.811L148.771 183.664H148.563H132.171H131.963L131.817 183.811L129.157 186.484Z"
          fill="#FF5C53" fill-opacity="0.15" stroke="#FF5C53"/>
    <path d="M108.23 3.3012C108.037 3.59142 107.941 3.91791 107.941 4.26859C107.941 4.76438 108.121 5.17551 108.47 5.502C108.832 5.8285 109.277 5.99779 109.818 5.99779C110.36 5.99779 110.817 5.8285 111.166 5.502C111.527 5.17551 111.696 4.76438 111.696 4.26859C111.696 3.90582 111.6 3.59142 111.407 3.3012C111.215 3.01098 110.974 2.81751 110.661 2.69658C110.914 2.58775 111.094 2.43055 111.227 2.21289C111.359 1.99523 111.419 1.76548 111.419 1.49945C111.419 1.08831 111.263 0.737626 110.95 0.44741C110.637 0.157194 110.252 0 109.794 0C109.337 0 108.952 0.145102 108.639 0.44741C108.326 0.737626 108.17 1.1004 108.17 1.49945C108.17 1.75338 108.242 1.99523 108.374 2.21289C108.507 2.43055 108.699 2.58775 108.928 2.69658C108.627 2.80541 108.374 3.01098 108.194 3.3012H108.23ZM108.795 1.58409C108.795 1.26969 108.892 1.00366 109.084 0.822279C109.277 0.628801 109.53 0.532056 109.83 0.532056C110.131 0.532056 110.384 0.628801 110.577 0.822279C110.769 1.01576 110.866 1.26969 110.866 1.58409C110.866 1.86222 110.769 2.09197 110.577 2.26126C110.384 2.44264 110.131 2.52729 109.818 2.52729C109.506 2.52729 109.253 2.44264 109.06 2.26126C108.868 2.07987 108.771 1.86222 108.771 1.58409H108.795ZM109.83 2.91425C110.204 2.91425 110.517 3.03518 110.757 3.28911C110.998 3.54305 111.118 3.84536 111.118 4.19604C111.118 4.59509 110.998 4.90949 110.757 5.13924C110.517 5.36899 110.204 5.48992 109.83 5.48992C109.457 5.48992 109.144 5.36899 108.904 5.13924C108.663 4.90949 108.543 4.59509 108.543 4.19604C108.543 3.84536 108.663 3.54305 108.904 3.28911C109.144 3.03518 109.457 2.91425 109.83 2.91425Z"
          fill="#FF5C53"/>
    <path d="M112.707 0.108642L113.814 5.90087H114.211L115.463 1.7411C115.523 1.52344 115.583 1.35415 115.607 1.23323C115.644 1.35415 115.692 1.52344 115.752 1.7411L116.992 5.90087H117.353L118.604 0.108642H118.002L117.172 4.08702L117.076 4.57071C117.052 4.46188 117.004 4.30468 116.955 4.1112L115.836 0.108642H115.403L114.272 4.1112C114.187 4.4256 114.127 4.60699 114.115 4.67954L114.019 4.09911L113.321 0.120737H112.707V0.108642Z"
          fill="#FF5C53"/>
    <path d="M120.867 3.14412C120.614 3.99059 120.47 4.9096 120.458 5.91327H121.035C121.035 3.71246 121.661 1.9107 122.889 0.495901V0.121041H119.435V0.616822H122.227C121.577 1.45119 121.119 2.29766 120.855 3.14412H120.867Z"
          fill="#FF5C53"/>
    <path d="M124.706 3.18009H126.595V2.63594H124.706V0.664888H127.498V0.108642H124.128V5.91296H124.706V3.18009Z"
          fill="#FF5C53"/>
    <path d="M129.845 5.91327V0.121041H129.472C129.316 0.604734 128.919 0.846579 128.281 0.846579V1.17308H129.256V5.91327H129.845Z"
          fill="#FF5C53"/>
    <path d="M134.575 5.91327V0.121041H134.202C134.045 0.604734 133.648 0.846579 133.01 0.846579V1.17308H133.985V5.91327H134.575Z"
          fill="#FF5C53"/>
    <path d="M136.826 4.41381H139.076L139.606 5.91327H140.196L138.174 0.121041H137.728L135.731 5.91327H136.332L136.838 4.41381H136.826ZM137.789 1.58421C137.789 1.58421 137.837 1.42701 137.885 1.2819L137.945 1.06424C137.969 1.16098 138.017 1.34237 138.114 1.58421L138.908 3.90594H137.006L137.801 1.58421H137.789Z"
          fill="#FF5C53"/>
    <path d="M142.531 5.91327V0.121041H142.158C142.001 0.604734 141.604 0.846579 140.966 0.846579V1.17308H141.941V5.91327H142.531Z"
          fill="#FF5C53"/>
    <path d="M146.093 5.91296V0.664888H147.682V0.108642H143.927V0.664888H145.515V5.91296H146.093Z" fill="#FF5C53"/>
    <path d="M150.101 5.91327V0.121041H149.728C149.571 0.604734 149.174 0.846579 148.536 0.846579V1.17308H149.511V5.91327H150.101Z"
          fill="#FF5C53"/>
    <path d="M157.31 5.35693H154.133C154.169 5.17554 154.229 5.01834 154.301 4.87323C154.385 4.72813 154.494 4.58302 154.65 4.45C154.795 4.31699 154.927 4.20815 155.047 4.12351C155.168 4.03886 155.324 3.93003 155.541 3.78492C155.745 3.65191 155.89 3.55516 155.962 3.5068C156.034 3.45843 156.167 3.3617 156.335 3.24077C156.516 3.10776 156.636 2.99892 156.708 2.91427C156.781 2.81754 156.865 2.70871 156.973 2.57569C157.069 2.44267 157.142 2.29757 157.178 2.14037C157.214 1.99526 157.238 1.82596 157.238 1.65667C157.238 1.16089 157.081 0.761844 156.756 0.471628C156.432 0.181412 155.998 0.0242083 155.433 0.0242083C154.951 0.0242083 154.554 0.145133 154.217 0.374887C153.88 0.604641 153.675 0.894861 153.591 1.25763L154.097 1.48738C154.253 0.858578 154.686 0.556274 155.384 0.556274C155.77 0.556274 156.082 0.665107 156.299 0.870677C156.516 1.07625 156.636 1.34227 156.636 1.66877C156.636 1.85015 156.6 2.00736 156.54 2.16456C156.48 2.32176 156.359 2.46686 156.203 2.62406C156.046 2.78126 155.902 2.89009 155.794 2.97474C155.685 3.05939 155.505 3.18031 155.264 3.3496C155.084 3.47052 154.963 3.55517 154.903 3.60354C154.843 3.65191 154.722 3.73655 154.566 3.85747C154.41 3.9784 154.289 4.08723 154.229 4.15978C154.169 4.23234 154.073 4.34117 153.964 4.48628C153.856 4.63139 153.772 4.7644 153.724 4.89742C153.675 5.03043 153.627 5.18763 153.591 5.36902C153.555 5.5504 153.531 5.74388 153.531 5.93736H157.31V5.35693Z"
          fill="#FF5C53"/>
    <path d="M159.862 5.91327V0.121041H159.488C159.332 0.604734 158.935 0.846579 158.297 0.846579V1.17308H159.272V5.91327H159.862Z"
          fill="#FF5C53"/>
    <path d="M163.412 5.91296V0.664888H165.001V0.108642H161.258V0.664888H162.834V5.91296H163.412Z" fill="#FF5C53"/>
    <path d="M170.26 1.70513C170.26 1.25772 170.116 0.882855 169.839 0.580546C169.562 0.278238 169.105 0.121041 168.479 0.121041H166.361V5.91327H166.939V3.32551H168.238L169.478 5.91327H170.116L168.84 3.30132C169.334 3.22877 169.695 3.03529 169.923 2.74507C170.152 2.45486 170.272 2.10418 170.272 1.71723L170.26 1.70513ZM169.418 2.49114C169.225 2.69671 168.912 2.80554 168.503 2.80554H166.951V0.641012H168.503C168.937 0.641012 169.237 0.749841 169.43 0.979596C169.623 1.19726 169.719 1.45119 169.719 1.74141C169.719 2.04372 169.623 2.29766 169.43 2.50323L169.418 2.49114Z"
          fill="#FF5C53"/>
    <path d="M172.451 1.34256C172.583 1.10072 172.764 0.89514 173.017 0.750032C173.257 0.604924 173.534 0.53237 173.847 0.53237C174.16 0.53237 174.401 0.592836 174.581 0.725852C174.774 0.846775 174.942 1.02816 175.099 1.24582L175.604 0.943514C175.424 0.653298 175.207 0.423547 174.942 0.266346C174.677 0.0970538 174.316 0.0123994 173.835 0.0123994C173.305 0.0123994 172.848 0.157515 172.487 0.435638C172.114 0.725854 171.849 1.07652 171.693 1.52394C171.536 1.97136 171.452 2.45505 171.452 3.0113C171.452 3.39826 171.5 3.77312 171.584 4.12379C171.681 4.47447 171.813 4.78887 171.993 5.07909C172.174 5.3693 172.427 5.59905 172.74 5.75626C173.053 5.92555 173.414 6.0102 173.835 6.0102C174.413 6.0102 174.882 5.81672 175.255 5.42977C175.628 5.04281 175.809 4.51075 175.809 3.82148V3.18059H174.136V3.68847H175.195V4.03915C175.195 4.48656 175.075 4.83724 174.822 5.09118C174.569 5.34512 174.244 5.47814 173.823 5.47814C173.402 5.47814 173.089 5.35721 172.8 5.11536C172.511 4.87352 172.318 4.57121 172.21 4.20844C172.102 3.84567 172.03 3.44662 172.03 2.99921C172.03 2.6969 172.066 2.40669 172.126 2.11647C172.186 1.83835 172.294 1.57231 172.427 1.33047L172.451 1.34256Z"
          fill="#FF5C53"/>
</svg>