<svg xmlns="http://www.w3.org/2000/svg" width="284" height="192" viewBox="0 0 284 192" fill="none">
    <path d="M92.2515 174.261H91.9458L91.8065 174.533L87.2159 183.5H63.9937L0.5 120.515V104.609L0.523002 104.585L0.523088 104.585L0.530306 104.577L91.0851 2.61893L91.0987 2.614L91.0987 2.61411L91.109 2.61011C93.0505 1.85443 94.8466 1.20728 96.5937 0.632357C96.5945 0.632086 96.5954 0.631815 96.5962 0.631544L96.6816 0.604448L105.383 17.5503L105.522 17.8219H105.828H177.823H178.129L178.268 17.55L186.958 0.60452L187.043 0.631544C187.044 0.631839 187.045 0.632135 187.045 0.63243C188.792 1.20734 190.589 1.85457 192.543 2.61048L192.543 2.61058L192.552 2.614L192.566 2.61893L192.578 2.63279L283.5 105.001V120.227L283.467 120.26L283.466 120.261L219.741 183.5H196.82L192.217 174.533L192.078 174.261H191.773H92.2515ZM192.751 2.47892L192.952 2.30075L192.751 2.47892Z"
          fill="#31181E" stroke="#FF5C53"/>
    <path d="M130.666 191.018L130.519 191.164V191.371V191.474H93.5203L93.5537 183.894L96.5917 177.976H189.661L192.652 183.891V191.474H153.585L150.451 188.351L150.305 188.205H150.098H133.684H133.477L133.331 188.352L130.666 191.018Z"
          fill="#FF5C53" fill-opacity="0.15" stroke="#FF5C53"/>
    <path d="M122.51 9.1318C122.317 9.42129 122.221 9.74696 122.221 10.0968C122.221 10.5913 122.402 11.0014 122.751 11.3271C123.113 11.6528 123.559 11.8216 124.102 11.8216C124.645 11.8216 125.103 11.6528 125.453 11.3271C125.815 11.0014 125.983 10.5913 125.983 10.0968C125.983 9.7349 125.887 9.42129 125.694 9.1318C125.501 8.84231 125.26 8.64932 124.946 8.5287C125.2 8.42014 125.38 8.26333 125.513 8.04622C125.646 7.8291 125.706 7.59992 125.706 7.33456C125.706 6.92445 125.549 6.57465 125.236 6.28516C124.922 5.99567 124.536 5.83887 124.078 5.83887C123.62 5.83887 123.234 5.98361 122.92 6.28516C122.607 6.57465 122.45 6.93651 122.45 7.33456C122.45 7.58786 122.522 7.8291 122.655 8.04622C122.788 8.26333 122.98 8.42014 123.21 8.5287C122.908 8.63725 122.655 8.84231 122.474 9.1318H122.51ZM123.077 7.41899C123.077 7.10538 123.173 6.84001 123.366 6.65908C123.559 6.46609 123.813 6.3696 124.114 6.3696C124.416 6.3696 124.669 6.46609 124.862 6.65908C125.055 6.85208 125.151 7.10538 125.151 7.41899C125.151 7.69642 125.055 7.9256 124.862 8.09446C124.669 8.27539 124.416 8.35983 124.102 8.35983C123.789 8.35983 123.535 8.27539 123.342 8.09446C123.149 7.91353 123.053 7.69642 123.053 7.41899H123.077ZM124.114 8.74581C124.488 8.74581 124.802 8.86643 125.043 9.11974C125.284 9.37304 125.405 9.67459 125.405 10.0244C125.405 10.4224 125.284 10.736 125.043 10.9652C124.802 11.1944 124.488 11.315 124.114 11.315C123.74 11.315 123.427 11.1944 123.186 10.9652C122.944 10.736 122.824 10.4224 122.824 10.0244C122.824 9.67459 122.944 9.37304 123.186 9.11974C123.427 8.86643 123.74 8.74581 124.114 8.74581Z"
          fill="#FF5C53"/>
    <path d="M128.504 11.7251L129.758 7.5758C129.818 7.35868 129.879 7.18981 129.903 7.06919C129.939 7.18981 129.987 7.35868 130.048 7.5758L131.29 11.7251H131.652L132.906 5.94743H132.303L131.471 9.91583L131.374 10.3983C131.35 10.2898 131.302 10.1329 131.254 9.93995L130.132 5.94743H129.698L128.564 9.93995C128.48 10.2536 128.42 10.4345 128.407 10.5069L128.311 9.92789L127.612 5.95949H126.996L128.106 11.7372H128.504V11.7251Z"
          fill="#FF5C53"/>
    <path d="M135.173 8.96293C134.92 9.80727 134.775 10.724 134.763 11.7251H135.342C135.342 9.52984 135.969 7.7326 137.199 6.32135V5.94743H133.738V6.44197H136.536C135.885 7.27425 135.426 8.11859 135.161 8.96293H135.173Z"
          fill="#FF5C53"/>
    <path d="M141.818 6.50228V5.94743H138.441V11.7251H139.02V9.01118H140.902V8.46839H139.02V6.50228H141.818Z"
          fill="#FF5C53"/>
    <path d="M144.158 11.7251V5.94743H143.784C143.627 6.42991 143.229 6.67115 142.59 6.67115V6.99682H143.567V11.7251H144.158Z"
          fill="#FF5C53"/>
    <path d="M148.897 11.7251V5.94743H148.524C148.367 6.42991 147.969 6.67115 147.33 6.67115V6.99682H148.306V11.7251H148.897Z"
          fill="#FF5C53"/>
    <path d="M151.165 10.2294H153.42L153.951 11.7251H154.542L152.515 5.94743H152.069L150.067 11.7251H150.67L151.177 10.2294H151.165ZM152.13 7.40693C152.13 7.40693 152.178 7.25012 152.226 7.10538L152.286 6.88826C152.31 6.98476 152.359 7.16569 152.455 7.40693L153.251 9.72284H151.346L152.142 7.40693H152.13Z"
          fill="#FF5C53"/>
    <path d="M156.869 11.7251V5.94743H156.495C156.338 6.42991 155.94 6.67115 155.301 6.67115V6.99682H156.278V11.7251H156.869Z"
          fill="#FF5C53"/>
    <path d="M160.439 11.7251V6.50228H162.031V5.94743H158.28V6.50228H159.86V11.7251H160.439Z" fill="#FF5C53"/>
    <path d="M164.467 11.7251V5.94743H164.093C163.936 6.42991 163.538 6.67115 162.899 6.67115V6.99682H163.876V11.7251H164.467Z"
          fill="#FF5C53"/>
</svg>