<svg xmlns="http://www.w3.org/2000/svg" width="284" height="192" viewBox="0 0 284 192" fill="none">
    <path d="M192.879 189.398C190.948 190.15 189.161 190.795 187.422 191.367C187.421 191.368 187.42 191.368 187.42 191.368L187.334 191.395L178.632 174.428L178.493 174.157H178.188H106.186H105.88L105.741 174.429L97.0506 191.395L96.9656 191.368C96.9649 191.368 96.9641 191.368 96.9634 191.368C95.2161 190.792 93.4194 190.144 91.465 189.387L91.4555 189.383L91.4421 189.378L91.4298 189.365L0.5 86.8568V71.6106L0.532943 71.5775L0.534487 71.576L64.2641 8.25879H87.1874L91.7904 17.2375L91.9298 17.5094H92.2353H191.765H192.071L192.21 17.2371L196.801 8.25879H220.001L283.5 71.3224V87.2486L283.477 87.2736L283.469 87.2817L192.879 189.398Z"
          fill="#31181E"/>
    <path d="M192.879 189.398C190.948 190.15 189.161 190.795 187.422 191.367C187.421 191.368 187.42 191.368 187.42 191.368L187.334 191.395L178.632 174.428L178.493 174.157H178.188H106.186H105.88L105.741 174.429L97.0506 191.395L96.9656 191.368C96.9649 191.368 96.9641 191.368 96.9634 191.368C95.2161 190.792 93.4194 190.144 91.465 189.387L91.4555 189.383L91.4421 189.378L91.4298 189.365L0.5 86.8568V71.6106L0.532943 71.5775L0.534487 71.576L64.2641 8.25879H87.1874L91.7904 17.2375L91.9298 17.5094H92.2353H191.765H192.071L192.21 17.2371L196.801 8.25879H220.001L283.5 71.3224V87.2486L283.477 87.2736L283.469 87.2817L192.879 189.398Z"
          fill="url(#paint0_linear_614_11553)" fill-opacity="0.8"/>
    <path d="M192.879 189.398C190.948 190.15 189.161 190.795 187.422 191.367C187.421 191.368 187.42 191.368 187.42 191.368L187.334 191.395L178.632 174.428L178.493 174.157H178.188H106.186H105.88L105.741 174.429L97.0506 191.395L96.9656 191.368C96.9649 191.368 96.9641 191.368 96.9634 191.368C95.2161 190.792 93.4194 190.144 91.465 189.387L91.4555 189.383L91.4421 189.378L91.4298 189.365L0.5 86.8568V71.6106L0.532943 71.5775L0.534487 71.576L64.2641 8.25879H87.1874L91.7904 17.2375L91.9298 17.5094H92.2353H191.765H192.071L192.21 17.2371L196.801 8.25879H220.001L283.5 71.3224V87.2486L283.477 87.2736L283.469 87.2817L192.879 189.398Z"
          stroke="#FF5C53"/>
    <path d="M154.123 0.968307L154.269 0.821923V0.615114V0.5H191.193L191.16 8.07967L188.128 13.9971H95.2422L92.2568 8.08232V0.5H131.234L134.361 3.63378L134.508 3.78058H134.715H151.109H151.316L151.462 3.63378L154.123 0.968307Z"
          fill="#FF5C53" fill-opacity="0.15" stroke="#FF5C53"/>
    <path d="M123.66 182.181C123.913 182.072 124.093 181.916 124.226 181.699C124.358 181.481 124.418 181.252 124.418 180.987C124.418 180.577 124.262 180.227 123.949 179.937C123.636 179.648 123.251 179.491 122.794 179.491C122.336 179.491 121.951 179.636 121.638 179.937C121.325 180.227 121.169 180.589 121.169 180.987C121.169 181.24 121.241 181.481 121.373 181.699C121.506 181.916 121.698 182.072 121.927 182.181C121.626 182.29 121.373 182.495 121.193 182.784C121 183.074 120.904 183.399 120.904 183.749C120.904 184.244 121.084 184.654 121.433 184.979C121.795 185.305 122.24 185.474 122.781 185.474C123.323 185.474 123.781 185.305 124.13 184.979C124.491 184.654 124.659 184.244 124.659 183.749C124.659 183.387 124.563 183.074 124.37 182.784C124.178 182.495 123.937 182.302 123.624 182.181H123.66ZM121.77 181.071C121.77 180.758 121.867 180.492 122.059 180.311C122.252 180.118 122.505 180.022 122.806 180.022C123.106 180.022 123.359 180.118 123.552 180.311C123.744 180.504 123.841 180.758 123.841 181.071C123.841 181.349 123.744 181.578 123.552 181.747C123.359 181.928 123.106 182.012 122.794 182.012C122.481 182.012 122.228 181.928 122.035 181.747C121.843 181.566 121.746 181.349 121.746 181.071H121.77ZM123.732 184.618C123.492 184.847 123.179 184.967 122.806 184.967C122.432 184.967 122.119 184.847 121.879 184.618C121.638 184.388 121.518 184.075 121.518 183.677C121.518 183.327 121.638 183.025 121.879 182.772C122.119 182.519 122.432 182.398 122.806 182.398C123.179 182.398 123.492 182.519 123.732 182.772C123.973 183.025 124.093 183.327 124.093 183.677C124.093 184.075 123.973 184.388 123.732 184.618Z"
          fill="#FF5C53"/>
    <path d="M130.16 183.556L130.064 184.039C130.039 183.93 129.991 183.773 129.943 183.58L128.824 179.588H128.39L127.259 183.58C127.175 183.894 127.115 184.075 127.103 184.147L127.006 183.568L126.308 179.6H125.694L126.802 185.377H127.199L128.451 181.228C128.511 181.011 128.571 180.842 128.595 180.721C128.631 180.842 128.679 181.011 128.74 181.228L129.979 185.377H130.34L131.592 179.6H130.99L130.16 183.568V183.556Z"
          fill="#FF5C53"/>
    <path d="M135.865 179.6H132.411V180.094H135.203C134.553 180.927 134.096 181.771 133.831 182.615C133.578 183.46 133.434 184.376 133.422 185.377H133.999C133.999 183.182 134.625 181.385 135.853 179.974V179.6H135.865Z"
          fill="#FF5C53"/>
    <path d="M140.475 180.155V179.6H137.105V185.377H137.683V182.664H139.56V182.121H137.683V180.155H140.475Z"
          fill="#FF5C53"/>
    <path d="M142.81 185.377V179.6H142.437C142.281 180.082 141.883 180.323 141.245 180.323V180.649H142.22V185.377H142.81Z"
          fill="#FF5C53"/>
    <path d="M147.54 185.377V179.6H147.167C147.011 180.082 146.614 180.323 145.976 180.323V180.649H146.951V185.377H147.54Z"
          fill="#FF5C53"/>
    <path d="M152.054 183.882L152.584 185.377H153.174L151.151 179.6H150.706L148.708 185.377H149.31L149.815 183.882H152.066H152.054ZM150.766 181.059C150.766 181.059 150.814 180.902 150.863 180.758L150.923 180.541C150.947 180.637 150.995 180.818 151.091 181.059L151.886 183.375H149.984L150.778 181.059H150.766Z"
          fill="#FF5C53"/>
    <path d="M155.497 185.377V179.6H155.123C154.967 180.082 154.57 180.323 153.932 180.323V180.649H154.907V185.377H155.497Z"
          fill="#FF5C53"/>
    <path d="M159.059 185.377V180.155H160.648V179.6H156.905V180.155H158.482V185.377H159.059Z" fill="#FF5C53"/>
    <path d="M163.067 185.377V179.6H162.694C162.538 180.082 162.141 180.323 161.503 180.323V180.649H162.478V185.377H163.067Z"
          fill="#FF5C53"/>
    <defs>
        <linearGradient id="paint0_linear_614_11553" x1="142" y1="7.75879" x2="142" y2="192"
                        gradientUnits="userSpaceOnUse">
            <stop stop-color="#31181E"/>
            <stop offset="0.739583" stop-color="#221015"/>
        </linearGradient>
    </defs>
</svg>