<svg xmlns="http://www.w3.org/2000/svg" width="284" height="187" viewBox="0 0 284 187" fill="none">
    <path d="M192.885 2.6338L192.885 2.63388L192.893 2.63709L192.907 2.64202L192.919 2.65591L283.5 104.765V120.709L220.001 183.772H196.801L192.21 174.794L192.071 174.522H191.765H92.2353H91.9298L91.7904 174.794L87.1874 183.772H64.2654L64.2313 183.738L64.2298 183.737L0.5 120.42V105.181L0.523231 105.156L0.523319 105.156L0.530593 105.148L91.4181 2.642L91.4316 2.63709L91.4316 2.63719L91.4409 2.63357C93.3953 1.87669 95.1919 1.22864 96.9391 0.652999C96.9399 0.652732 96.9407 0.652465 96.9415 0.652198L97.0265 0.62522L105.716 17.5918L105.856 17.8639H106.161H178.164H178.469L178.608 17.592L187.31 0.625146L187.394 0.651549C187.395 0.651927 187.396 0.652306 187.397 0.652684C189.157 1.24072 190.954 1.889 192.885 2.6338Z"
          fill="#31181E" stroke="#FF5C53"/>
    <path d="M153.961 0.956233L154.107 0.809848V0.603037V0.5H178.995L178.962 8.07964L175.93 13.997H107.117L104.132 8.0823V0.5H131.084L134.2 3.62168L134.346 3.76849H134.553H150.947H151.155L151.301 3.62168L153.961 0.956233Z"
          fill="#FF5C53" fill-opacity="0.15" stroke="#FF5C53"/>
    <path d="M110.707 183.708C110.959 183.599 111.14 183.442 111.272 183.225C111.405 183.008 111.465 182.779 111.465 182.514C111.465 182.104 111.308 181.754 110.995 181.464C110.682 181.175 110.297 181.018 109.84 181.018C109.383 181.018 108.997 181.163 108.684 181.464C108.371 181.754 108.215 182.116 108.215 182.514C108.215 182.767 108.287 183.008 108.42 183.225C108.552 183.442 108.745 183.599 108.973 183.708C108.672 183.816 108.42 184.021 108.239 184.311C108.046 184.6 107.95 184.926 107.95 185.276C107.95 185.77 108.131 186.18 108.48 186.506C108.841 186.832 109.286 187.001 109.828 187.001C110.37 187.001 110.827 186.832 111.176 186.506C111.537 186.18 111.706 185.77 111.706 185.276C111.706 184.914 111.609 184.6 111.417 184.311C111.224 184.021 110.983 183.828 110.67 183.708H110.707ZM108.817 182.598C108.817 182.284 108.913 182.019 109.106 181.838C109.298 181.645 109.551 181.549 109.852 181.549C110.153 181.549 110.406 181.645 110.598 181.838C110.791 182.031 110.887 182.284 110.887 182.598C110.887 182.875 110.791 183.105 110.598 183.274C110.406 183.454 110.153 183.539 109.84 183.539C109.527 183.539 109.274 183.454 109.082 183.274C108.889 183.093 108.793 182.875 108.793 182.598H108.817ZM110.779 186.144C110.538 186.373 110.225 186.494 109.852 186.494C109.479 186.494 109.166 186.373 108.925 186.144C108.684 185.915 108.564 185.601 108.564 185.203C108.564 184.854 108.684 184.552 108.925 184.299C109.166 184.045 109.479 183.925 109.852 183.925C110.225 183.925 110.538 184.045 110.779 184.299C111.019 184.552 111.14 184.854 111.14 185.203C111.14 185.601 111.019 185.915 110.779 186.144Z"
          fill="#FF5C53"/>
    <path d="M117.194 185.083L117.098 185.565C117.074 185.457 117.026 185.3 116.978 185.107L115.858 181.114H115.425L114.293 185.107C114.209 185.421 114.149 185.601 114.137 185.674L114.041 185.095L113.343 181.126H112.729L113.836 186.904H114.233L115.485 182.755C115.545 182.538 115.605 182.369 115.629 182.248C115.666 182.369 115.714 182.538 115.774 182.755L117.014 186.904H117.375L118.627 181.126H118.025L117.194 185.095V185.083Z"
          fill="#FF5C53"/>
    <path d="M122.25 181.621C121.6 182.453 121.142 183.298 120.877 184.142C120.625 184.986 120.48 185.903 120.468 186.904H121.046C121.046 184.709 121.672 182.912 122.899 181.5V181.126H119.445V181.621H122.25Z"
          fill="#FF5C53"/>
    <path d="M127.509 181.669V181.114H124.139V186.904H124.717V184.178H126.607V183.635H124.717V181.669H127.509Z"
          fill="#FF5C53"/>
    <path d="M129.857 186.904V181.126H129.483C129.327 181.609 128.93 181.85 128.292 181.85V182.176H129.267V186.904H129.857Z"
          fill="#FF5C53"/>
    <path d="M134.587 186.904V181.126H134.214C134.057 181.609 133.66 181.85 133.022 181.85V182.176H133.997V186.904H134.587Z"
          fill="#FF5C53"/>
    <path d="M139.088 185.408L139.618 186.904H140.208L138.186 181.126H137.74L135.742 186.904H136.344L136.85 185.408H139.101H139.088ZM137.801 182.586C137.801 182.586 137.849 182.429 137.897 182.284L137.957 182.067C137.981 182.164 138.029 182.345 138.126 182.586L138.92 184.902H137.018L137.813 182.586H137.801Z"
          fill="#FF5C53"/>
    <path d="M142.543 186.904V181.126H142.17C142.013 181.609 141.616 181.85 140.978 181.85V182.176H141.953V186.904H142.543Z"
          fill="#FF5C53"/>
    <path d="M146.106 186.904V181.669H147.695V181.114H143.939V181.669H145.528V186.904H146.106Z" fill="#FF5C53"/>
    <path d="M150.114 186.904V181.126H149.741C149.584 181.609 149.187 181.85 148.549 181.85V182.176H149.524V186.904H150.114Z"
          fill="#FF5C53"/>
    <path d="M156.228 183.599C156.072 183.756 155.927 183.865 155.819 183.949C155.711 184.033 155.53 184.154 155.29 184.323C155.109 184.444 154.989 184.528 154.928 184.576C154.868 184.624 154.748 184.709 154.591 184.829C154.435 184.95 154.315 185.059 154.254 185.131C154.194 185.203 154.098 185.312 153.99 185.457C153.881 185.601 153.797 185.734 153.749 185.867C153.701 185.999 153.653 186.156 153.616 186.337C153.58 186.518 153.556 186.711 153.556 186.904H157.336V186.349H154.158C154.194 186.168 154.254 186.012 154.327 185.867C154.411 185.722 154.519 185.577 154.676 185.445C154.82 185.312 154.953 185.203 155.073 185.119C155.193 185.035 155.35 184.926 155.566 184.781C155.771 184.649 155.915 184.552 155.988 184.504C156.06 184.456 156.192 184.359 156.361 184.238C156.541 184.106 156.662 183.997 156.734 183.913C156.806 183.816 156.89 183.708 156.999 183.575C157.095 183.442 157.167 183.298 157.203 183.141C157.239 182.996 157.264 182.827 157.264 182.658C157.264 182.164 157.107 181.766 156.782 181.476C156.457 181.187 156.024 181.03 155.458 181.03C154.977 181.03 154.579 181.151 154.242 181.38C153.905 181.609 153.701 181.898 153.616 182.26L154.122 182.489C154.278 181.862 154.712 181.561 155.41 181.561C155.795 181.561 156.108 181.669 156.325 181.874C156.541 182.079 156.662 182.345 156.662 182.67C156.662 182.851 156.626 183.008 156.565 183.165C156.505 183.322 156.385 183.466 156.228 183.623V183.599Z"
          fill="#FF5C53"/>
    <path d="M159.875 186.904V181.126H159.502C159.346 181.609 158.949 181.85 158.311 181.85V182.176H159.286V186.904H159.875Z"
          fill="#FF5C53"/>
    <path d="M163.426 186.904V181.669H165.015V181.114H161.272V181.669H162.848V186.904H163.426Z" fill="#FF5C53"/>
    <path d="M170.275 182.707C170.275 182.26 170.131 181.886 169.854 181.585C169.577 181.283 169.119 181.126 168.494 181.126H166.375V186.904H166.953V184.323H168.253L169.493 186.904H170.13L168.855 184.299C169.348 184.226 169.709 184.033 169.938 183.744C170.167 183.454 170.287 183.105 170.287 182.719L170.275 182.707ZM169.432 183.491C169.24 183.696 168.927 183.804 168.518 183.804H166.965V181.645H168.518C168.951 181.645 169.252 181.754 169.444 181.983C169.637 182.2 169.733 182.453 169.733 182.743C169.733 183.044 169.637 183.298 169.444 183.503L169.432 183.491Z"
          fill="#FF5C53"/>
    <path d="M175.836 184.178H174.163V184.685H175.222V185.035C175.222 185.481 175.102 185.831 174.849 186.084C174.596 186.337 174.271 186.47 173.85 186.47C173.428 186.47 173.116 186.349 172.827 186.108C172.538 185.867 172.345 185.565 172.237 185.203C172.129 184.842 172.056 184.444 172.056 183.997C172.056 183.696 172.092 183.406 172.153 183.117C172.213 182.839 172.321 182.574 172.454 182.333C172.586 182.091 172.766 181.886 173.019 181.742C173.26 181.597 173.537 181.525 173.85 181.525C174.163 181.525 174.403 181.585 174.584 181.717C174.777 181.838 174.945 182.019 175.102 182.236L175.607 181.935C175.427 181.645 175.21 181.416 174.945 181.259C174.68 181.09 174.319 181.006 173.838 181.006C173.308 181.006 172.851 181.151 172.49 181.428C172.117 181.717 171.852 182.067 171.695 182.514C171.539 182.96 171.455 183.442 171.455 183.997C171.455 184.383 171.503 184.757 171.587 185.107C171.683 185.457 171.816 185.77 171.996 186.06C172.177 186.349 172.429 186.579 172.742 186.735C173.055 186.904 173.416 186.989 173.838 186.989C174.415 186.989 174.885 186.796 175.258 186.41C175.631 186.024 175.812 185.493 175.812 184.805V184.166L175.836 184.178Z"
          fill="#FF5C53"/>
</svg>